<?xml version="1.0" encoding="UTF-8" standalone="no"?>
<!DOCTYPE svg PUBLIC "-//W3C//DTD SVG 1.1//EN" "http://www.w3.org/Graphics/SVG/1.1/DTD/svg11.dtd">
<svg version="1.1" xmlns="http://www.w3.org/2000/svg" xmlns:xlink="http://www.w3.org/1999/xlink" preserveAspectRatio="xMidYMid meet" viewBox="0 0 640 640" width="640" height="640"><defs><path d="M369.39 227.97C369.39 255.23 347.26 277.36 320 277.36C292.74 277.36 270.61 255.23 270.61 227.97C270.61 200.71 292.74 178.58 320 178.58C347.26 178.58 369.39 200.71 369.39 227.97Z" id="c4YpLQB9nl"></path><path d="M350.54 285.41C361.59 285.41 370.54 294.36 370.54 305.41C370.54 336.32 370.54 409.08 370.54 440C370.54 451.05 361.59 460 350.54 460C334.32 460 305.68 460 289.46 460C278.41 460 269.46 451.05 269.46 440C269.46 409.08 269.46 336.32 269.46 305.41C269.46 294.36 278.41 285.41 289.46 285.41C305.68 285.41 334.32 285.41 350.54 285.41Z" id="d4gTapHFK4"></path></defs><g><g><g><use xlink:href="#c4YpLQB9nl" opacity="1" fill="#3e6e7e" fill-opacity="1"></use></g><g><use xlink:href="#d4gTapHFK4" opacity="1" fill="#3e6e7e" fill-opacity="1"></use></g></g></g></svg>